<?xml version="1.0" encoding="UTF-8" standalone="no"?>
<!DOCTYPE svg PUBLIC "-//W3C//DTD SVG 1.1//EN"
 "http://www.w3.org/Graphics/SVG/1.1/DTD/svg11.dtd">
<!-- Generated by graphviz version 5.0.0 (20220707.1540)
 -->
<!-- Title: StorageDiagram Pages: 1 -->
<svg width="1749pt" height="654pt"
 viewBox="0.00 0.00 1748.66 653.60" xmlns="http://www.w3.org/2000/svg" xmlns:xlink="http://www.w3.org/1999/xlink">
<g id="graph0" class="graph" transform="scale(1 1) rotate(0) translate(4 649.6)">
<title>StorageDiagram</title>
<polygon fill="white" stroke="transparent" points="-4,4 -4,-649.6 1744.66,-649.6 1744.66,4 -4,4"/>
<!-- 6 -->
<g id="node1" class="node">
<title>6</title>
<polygon fill="#f2f2f2" stroke="black" points="0,-147.1 0,-543.9 527.68,-543.9 527.68,-147.1 0,-147.1"/>
<text text-anchor="middle" x="263.84" y="-527.3" font-family="Courier New" font-size="14.00">GasContract &lt;&lt;Contract&gt;&gt;</text>
<polyline fill="none" stroke="black" points="0,-519.1 527.68,-519.1 "/>
<text text-anchor="middle" x="24.8" y="-502.5" font-family="Courier New" font-size="14.00">slot</text>
<polyline fill="none" stroke="black" points="0,-494.3 49.61,-494.3 "/>
<text text-anchor="middle" x="24.8" y="-477.7" font-family="Courier New" font-size="14.00">0</text>
<polyline fill="none" stroke="black" points="0,-469.5 49.61,-469.5 "/>
<text text-anchor="middle" x="24.8" y="-452.9" font-family="Courier New" font-size="14.00">1</text>
<polyline fill="none" stroke="black" points="0,-444.7 49.61,-444.7 "/>
<text text-anchor="middle" x="24.8" y="-428.1" font-family="Courier New" font-size="14.00">2</text>
<polyline fill="none" stroke="black" points="0,-419.9 49.61,-419.9 "/>
<text text-anchor="middle" x="24.8" y="-403.3" font-family="Courier New" font-size="14.00">3</text>
<polyline fill="none" stroke="black" points="0,-395.1 49.61,-395.1 "/>
<text text-anchor="middle" x="24.8" y="-378.5" font-family="Courier New" font-size="14.00">4</text>
<polyline fill="none" stroke="black" points="0,-370.3 49.61,-370.3 "/>
<text text-anchor="middle" x="24.8" y="-353.7" font-family="Courier New" font-size="14.00">5</text>
<polyline fill="none" stroke="black" points="0,-345.5 49.61,-345.5 "/>
<text text-anchor="middle" x="24.8" y="-328.9" font-family="Courier New" font-size="14.00">6</text>
<polyline fill="none" stroke="black" points="0,-320.7 49.61,-320.7 "/>
<text text-anchor="middle" x="24.8" y="-304.1" font-family="Courier New" font-size="14.00">7</text>
<polyline fill="none" stroke="black" points="0,-295.9 49.61,-295.9 "/>
<text text-anchor="middle" x="24.8" y="-279.3" font-family="Courier New" font-size="14.00">8&#45;12</text>
<polyline fill="none" stroke="black" points="0,-271.1 49.61,-271.1 "/>
<text text-anchor="middle" x="24.8" y="-254.5" font-family="Courier New" font-size="14.00">13</text>
<polyline fill="none" stroke="black" points="0,-246.3 49.61,-246.3 "/>
<text text-anchor="middle" x="24.8" y="-229.7" font-family="Courier New" font-size="14.00">14</text>
<polyline fill="none" stroke="black" points="0,-221.5 49.61,-221.5 "/>
<text text-anchor="middle" x="24.8" y="-204.9" font-family="Courier New" font-size="14.00">15</text>
<polyline fill="none" stroke="black" points="0,-196.7 49.61,-196.7 "/>
<text text-anchor="middle" x="24.8" y="-180.1" font-family="Courier New" font-size="14.00">16</text>
<polyline fill="none" stroke="black" points="0,-171.9 49.61,-171.9 "/>
<text text-anchor="middle" x="24.8" y="-155.3" font-family="Courier New" font-size="14.00">17</text>
<polyline fill="none" stroke="black" points="49.61,-147.1 49.61,-519.1 "/>
<text text-anchor="middle" x="288.64" y="-502.5" font-family="Courier New" font-size="14.00">type: &lt;inherited contract&gt;.variable (bytes)</text>
<polyline fill="none" stroke="black" points="49.61,-494.3 527.68,-494.3 "/>
<text text-anchor="middle" x="288.62" y="-477.7" font-family="Courier New" font-size="14.00">uint256: totalSupply (32)</text>
<polyline fill="none" stroke="black" points="49.61,-469.5 527.68,-469.5 "/>
<text text-anchor="middle" x="288.22" y="-452.9" font-family="Courier New" font-size="14.00">uint256: paymentCounter (32)</text>
<polyline fill="none" stroke="black" points="49.61,-444.7 527.68,-444.7 "/>
<text text-anchor="middle" x="288.63" y="-428.1" font-family="Courier New" font-size="14.00">mapping(address=&gt;uint256): balances (32)</text>
<polyline fill="none" stroke="black" points="49.61,-419.9 527.68,-419.9 "/>
<text text-anchor="middle" x="288.32" y="-403.3" font-family="Courier New" font-size="14.00">uint256: tradePercent (32)</text>
<polyline fill="none" stroke="black" points="49.61,-395.1 527.68,-395.1 "/>
<text text-anchor="middle" x="145.82" y="-378.5" font-family="Courier New" font-size="14.00">unallocated (12)</text>
<polyline fill="none" stroke="black" points="242.03,-370.3 242.03,-395.1 "/>
<text text-anchor="middle" x="384.45" y="-378.5" font-family="Courier New" font-size="14.00">address: contractOwner (20)</text>
<polyline fill="none" stroke="black" points="49.61,-370.3 527.68,-370.3 "/>
<text text-anchor="middle" x="288.22" y="-353.7" font-family="Courier New" font-size="14.00">uint256: tradeMode (32)</text>
<polyline fill="none" stroke="black" points="49.61,-345.5 527.68,-345.5 "/>
<text text-anchor="middle" x="288.53" y="-328.9" font-family="Courier New" font-size="14.00">mapping(address=&gt;Payment[]): payments (32)</text>
<polyline fill="none" stroke="black" points="49.61,-320.7 527.68,-320.7 "/>
<text text-anchor="middle" x="288.33" y="-304.1" font-family="Courier New" font-size="14.00">mapping(address=&gt;uint256): whitelist (32)</text>
<polyline fill="none" stroke="black" points="49.61,-295.9 527.68,-295.9 "/>
<text text-anchor="middle" x="288.53" y="-279.3" font-family="Courier New" font-size="14.00">address[5]: administrators (160)</text>
<polyline fill="none" stroke="black" points="49.61,-271.1 527.68,-271.1 "/>
<text text-anchor="middle" x="166.82" y="-254.5" font-family="Courier New" font-size="14.00">unallocated (31)</text>
<polyline fill="none" stroke="black" points="284.03,-246.3 284.03,-271.1 "/>
<text text-anchor="middle" x="405.44" y="-254.5" font-family="Courier New" font-size="14.00">bool: isReady (1)</text>
<polyline fill="none" stroke="black" points="49.61,-246.3 527.68,-246.3 "/>
<text text-anchor="middle" x="288.63" y="-229.7" font-family="Courier New" font-size="14.00">History[]: paymentHistory (32)</text>
<polyline fill="none" stroke="black" points="49.61,-221.5 527.68,-221.5 "/>
<text text-anchor="middle" x="288.42" y="-204.9" font-family="Courier New" font-size="14.00">uint256: wasLastOdd (32)</text>
<polyline fill="none" stroke="black" points="49.61,-196.7 527.68,-196.7 "/>
<text text-anchor="middle" x="288.64" y="-180.1" font-family="Courier New" font-size="14.00">mapping(address=&gt;uint256): isOddWhitelistUser (32)</text>
<polyline fill="none" stroke="black" points="49.61,-171.9 527.68,-171.9 "/>
<text text-anchor="middle" x="288.64" y="-155.3" font-family="Courier New" font-size="14.00">mapping(address=&gt;ImportantStruct): whiteListStruct (32)</text>
</g>
<!-- 1 -->
<g id="node2" class="node">
<title>1</title>
<polygon fill="#f2f2f2" stroke="black" points="614.89,-421.9 614.89,-645.1 1082.96,-645.1 1082.96,-421.9 614.89,-421.9"/>
<text text-anchor="middle" x="848.93" y="-628.5" font-family="Courier New" font-size="14.00">Payment &lt;&lt;Struct&gt;&gt;</text>
<polyline fill="none" stroke="black" points="614.89,-620.3 1082.96,-620.3 "/>
<text text-anchor="middle" x="648.1" y="-603.7" font-family="Courier New" font-size="14.00">offset</text>
<polyline fill="none" stroke="black" points="614.89,-595.5 681.3,-595.5 "/>
<text text-anchor="middle" x="648.1" y="-578.9" font-family="Courier New" font-size="14.00">0</text>
<polyline fill="none" stroke="black" points="614.89,-570.7 681.3,-570.7 "/>
<text text-anchor="middle" x="648.1" y="-554.1" font-family="Courier New" font-size="14.00">1</text>
<polyline fill="none" stroke="black" points="614.89,-545.9 681.3,-545.9 "/>
<text text-anchor="middle" x="648.1" y="-529.3" font-family="Courier New" font-size="14.00">2</text>
<polyline fill="none" stroke="black" points="614.89,-521.1 681.3,-521.1 "/>
<text text-anchor="middle" x="648.1" y="-504.5" font-family="Courier New" font-size="14.00">3</text>
<polyline fill="none" stroke="black" points="614.89,-496.3 681.3,-496.3 "/>
<text text-anchor="middle" x="648.1" y="-479.7" font-family="Courier New" font-size="14.00">4</text>
<polyline fill="none" stroke="black" points="614.89,-471.5 681.3,-471.5 "/>
<text text-anchor="middle" x="648.1" y="-454.9" font-family="Courier New" font-size="14.00">5</text>
<polyline fill="none" stroke="black" points="614.89,-446.7 681.3,-446.7 "/>
<text text-anchor="middle" x="648.1" y="-430.1" font-family="Courier New" font-size="14.00">6</text>
<polyline fill="none" stroke="black" points="681.3,-421.9 681.3,-620.3 "/>
<text text-anchor="middle" x="882.13" y="-603.7" font-family="Courier New" font-size="14.00">type: variable (bytes)</text>
<polyline fill="none" stroke="black" points="681.3,-595.5 1082.96,-595.5 "/>
<text text-anchor="middle" x="756.51" y="-578.9" font-family="Courier New" font-size="14.00">unallocated (31)</text>
<polyline fill="none" stroke="black" points="831.72,-570.7 831.72,-595.5 "/>
<text text-anchor="middle" x="957.34" y="-578.9" font-family="Courier New" font-size="14.00">PaymentType: paymentType (1)</text>
<polyline fill="none" stroke="black" points="681.3,-570.7 1082.96,-570.7 "/>
<text text-anchor="middle" x="881.92" y="-554.1" font-family="Courier New" font-size="14.00">uint256: paymentID (32)</text>
<polyline fill="none" stroke="black" points="681.3,-545.9 1082.96,-545.9 "/>
<text text-anchor="middle" x="769.01" y="-529.3" font-family="Courier New" font-size="14.00">unallocated (31)</text>
<polyline fill="none" stroke="black" points="856.72,-521.1 856.72,-545.9 "/>
<text text-anchor="middle" x="969.64" y="-529.3" font-family="Courier New" font-size="14.00">bool: adminUpdated (1)</text>
<polyline fill="none" stroke="black" points="681.3,-521.1 1082.96,-521.1 "/>
<text text-anchor="middle" x="882.02" y="-504.5" font-family="Courier New" font-size="14.00">string: recipientName (32)</text>
<polyline fill="none" stroke="black" points="681.3,-496.3 1082.96,-496.3 "/>
<text text-anchor="middle" x="767.01" y="-479.7" font-family="Courier New" font-size="14.00">unallocated (12)</text>
<polyline fill="none" stroke="black" points="852.72,-471.5 852.72,-496.3 "/>
<text text-anchor="middle" x="967.84" y="-479.7" font-family="Courier New" font-size="14.00">address: recipient (20)</text>
<polyline fill="none" stroke="black" points="681.3,-471.5 1082.96,-471.5 "/>
<text text-anchor="middle" x="775.01" y="-454.9" font-family="Courier New" font-size="14.00">unallocated (12)</text>
<polyline fill="none" stroke="black" points="868.72,-446.7 868.72,-471.5 "/>
<text text-anchor="middle" x="975.53" y="-454.9" font-family="Courier New" font-size="14.00">address: admin (20)</text>
<polyline fill="none" stroke="black" points="681.3,-446.7 1082.96,-446.7 "/>
<text text-anchor="middle" x="881.81" y="-430.1" font-family="Courier New" font-size="14.00">uint256: amount (32)</text>
</g>
<!-- 6&#45;&gt;1 -->
<g id="edge1" class="edge">
<title>6:14&#45;&gt;1</title>
<path fill="none" stroke="black" d="M527.68,-333.5C566.27,-333.5 536.06,-385.56 563.68,-412.5 576.56,-425.06 590.94,-436.4 606.21,-446.64"/>
<polygon fill="black" stroke="black" points="604.49,-449.69 614.79,-452.21 608.31,-443.82 604.49,-449.69"/>
</g>
<!-- 2 -->
<g id="node3" class="node">
<title>2</title>
<polygon fill="#f2f2f2" stroke="black" points="689.7,-254.1 689.7,-402.9 1008.15,-402.9 1008.15,-254.1 689.7,-254.1"/>
<text text-anchor="middle" x="848.93" y="-386.3" font-family="Courier New" font-size="14.00">address[5]: administrators &lt;&lt;Array&gt;&gt;</text>
<polyline fill="none" stroke="black" points="689.7,-378.1 1008.15,-378.1 "/>
<text text-anchor="middle" x="714.5" y="-361.5" font-family="Courier New" font-size="14.00">slot</text>
<polyline fill="none" stroke="black" points="689.7,-353.3 739.31,-353.3 "/>
<text text-anchor="middle" x="714.5" y="-336.7" font-family="Courier New" font-size="14.00">8</text>
<polyline fill="none" stroke="black" points="689.7,-328.5 739.31,-328.5 "/>
<text text-anchor="middle" x="714.5" y="-311.9" font-family="Courier New" font-size="14.00">9</text>
<polyline fill="none" stroke="black" points="689.7,-303.7 739.31,-303.7 "/>
<text text-anchor="middle" x="714.5" y="-287.1" font-family="Courier New" font-size="14.00">11</text>
<polyline fill="none" stroke="black" points="689.7,-278.9 739.31,-278.9 "/>
<text text-anchor="middle" x="714.5" y="-262.3" font-family="Courier New" font-size="14.00">12</text>
<polyline fill="none" stroke="black" points="739.31,-254.1 739.31,-378.1 "/>
<text text-anchor="middle" x="873.43" y="-361.5" font-family="Courier New" font-size="14.00">type: variable (bytes)</text>
<polyline fill="none" stroke="black" points="739.31,-353.3 1007.54,-353.3 "/>
<text text-anchor="middle" x="814.52" y="-336.7" font-family="Courier New" font-size="14.00">unallocated (12)</text>
<polyline fill="none" stroke="black" points="889.73,-328.5 889.73,-353.3 "/>
<text text-anchor="middle" x="948.64" y="-336.7" font-family="Courier New" font-size="14.00">address (20)</text>
<polyline fill="none" stroke="black" points="739.31,-328.5 1007.54,-328.5 "/>
<text text-anchor="middle" x="814.52" y="-311.9" font-family="Courier New" font-size="14.00">unallocated (12)</text>
<polyline fill="none" stroke="black" points="889.73,-303.7 889.73,-328.5 "/>
<text text-anchor="middle" x="948.64" y="-311.9" font-family="Courier New" font-size="14.00">address (20)</text>
<polyline fill="none" stroke="black" points="739.31,-303.7 1007.54,-303.7 "/>
<text text-anchor="middle" x="814.52" y="-287.1" font-family="Courier New" font-size="14.00">unallocated (12)</text>
<polyline fill="none" stroke="black" points="889.73,-278.9 889.73,-303.7 "/>
<text text-anchor="middle" x="948.64" y="-287.1" font-family="Courier New" font-size="14.00">address (20)</text>
<polyline fill="none" stroke="black" points="739.31,-278.9 1007.54,-278.9 "/>
<text text-anchor="middle" x="814.52" y="-262.3" font-family="Courier New" font-size="14.00">unallocated (12)</text>
<polyline fill="none" stroke="black" points="889.73,-254.1 889.73,-278.9 "/>
<text text-anchor="middle" x="948.64" y="-262.3" font-family="Courier New" font-size="14.00">address (20)</text>
</g>
<!-- 6&#45;&gt;2 -->
<g id="edge2" class="edge">
<title>6:20&#45;&gt;2</title>
<path fill="none" stroke="black" d="M527.68,-283.5C577.19,-283.5 630.58,-288.84 679.31,-295.84"/>
<polygon fill="black" stroke="black" points="678.91,-299.32 689.32,-297.31 679.93,-292.39 678.91,-299.32"/>
</g>
<!-- 4 -->
<g id="node5" class="node">
<title>4</title>
<polygon fill="#f2f2f2" stroke="black" points="563.68,-143.9 563.68,-235.1 1134.17,-235.1 1134.17,-143.9 563.68,-143.9"/>
<text text-anchor="middle" x="848.93" y="-218.5" font-family="Courier New" font-size="14.00">History[]: paymentHistory &lt;&lt;Array&gt;&gt;</text>
<text text-anchor="middle" x="848.93" y="-201.7" font-family="Courier New" font-size="14.00">0xbb7b4a454dc3493923482f07822329ed19e8244eff582cc204f8554c3620c3fd</text>
<polyline fill="none" stroke="black" points="563.68,-193.5 1134.17,-193.5 "/>
<text text-anchor="middle" x="672.38" y="-176.9" font-family="Courier New" font-size="14.00">offset</text>
<polyline fill="none" stroke="black" points="563.68,-168.7 781.09,-168.7 "/>
<text text-anchor="middle" x="672.38" y="-152.1" font-family="Courier New" font-size="14.00">0&#45;2</text>
<polyline fill="none" stroke="black" points="781.09,-143.9 781.09,-193.5 "/>
<text text-anchor="middle" x="957.5" y="-176.9" font-family="Courier New" font-size="14.00">type: variable (bytes)</text>
<polyline fill="none" stroke="black" points="781.09,-168.7 1133.92,-168.7 "/>
<text text-anchor="middle" x="957.5" y="-152.1" font-family="Courier New" font-size="14.00">History (96)</text>
</g>
<!-- 6&#45;&gt;4 -->
<g id="edge3" class="edge">
<title>6:26&#45;&gt;4</title>
<path fill="none" stroke="black" d="M527.68,-233.5C536.15,-233.5 544.74,-233.35 553.39,-233.06"/>
<polygon fill="black" stroke="black" points="553.73,-236.55 563.59,-232.66 553.46,-229.55 553.73,-236.55"/>
</g>
<!-- 5 -->
<g id="node6" class="node">
<title>5</title>
<polygon fill="#f2f2f2" stroke="black" points="715.31,-0.5 715.31,-124.5 982.54,-124.5 982.54,-0.5 715.31,-0.5"/>
<text text-anchor="middle" x="848.93" y="-107.9" font-family="Courier New" font-size="14.00">ImportantStruct &lt;&lt;Struct&gt;&gt;</text>
<polyline fill="none" stroke="black" points="715.31,-99.7 982.54,-99.7 "/>
<text text-anchor="middle" x="748.51" y="-83.1" font-family="Courier New" font-size="14.00">offset</text>
<polyline fill="none" stroke="black" points="715.31,-74.9 781.71,-74.9 "/>
<text text-anchor="middle" x="748.51" y="-58.3" font-family="Courier New" font-size="14.00">0</text>
<polyline fill="none" stroke="black" points="715.31,-50.1 781.71,-50.1 "/>
<text text-anchor="middle" x="748.51" y="-33.5" font-family="Courier New" font-size="14.00">1</text>
<polyline fill="none" stroke="black" points="715.31,-25.3 781.71,-25.3 "/>
<text text-anchor="middle" x="748.51" y="-8.7" font-family="Courier New" font-size="14.00">2</text>
<polyline fill="none" stroke="black" points="781.71,-0.5 781.71,-99.7 "/>
<text text-anchor="middle" x="882.13" y="-83.1" font-family="Courier New" font-size="14.00">type: variable (bytes)</text>
<polyline fill="none" stroke="black" points="781.71,-74.9 982.54,-74.9 "/>
<text text-anchor="middle" x="881.73" y="-58.3" font-family="Courier New" font-size="14.00">uint256: valueA (32)</text>
<polyline fill="none" stroke="black" points="781.71,-50.1 982.54,-50.1 "/>
<text text-anchor="middle" x="882.13" y="-33.5" font-family="Courier New" font-size="14.00">uint256: bigValue (32)</text>
<polyline fill="none" stroke="black" points="781.71,-25.3 982.54,-25.3 "/>
<text text-anchor="middle" x="881.73" y="-8.7" font-family="Courier New" font-size="14.00">uint256: valueB (32)</text>
</g>
<!-- 6&#45;&gt;5 -->
<g id="edge4" class="edge">
<title>6:32&#45;&gt;5</title>
<path fill="none" stroke="black" d="M527.68,-159.5C547.16,-159.5 545.95,-142.58 563.68,-134.5 608.01,-114.3 658.92,-99.14 705.29,-88.08"/>
<polygon fill="black" stroke="black" points="706.17,-91.47 715.11,-85.78 704.57,-84.65 706.17,-91.47"/>
</g>
<!-- 3 -->
<g id="node4" class="node">
<title>3</title>
<polygon fill="#f2f2f2" stroke="black" points="1170.17,-86.1 1170.17,-226.9 1740.66,-226.9 1740.66,-86.1 1170.17,-86.1"/>
<text text-anchor="middle" x="1455.42" y="-210.3" font-family="Courier New" font-size="14.00">History &lt;&lt;Struct&gt;&gt;</text>
<text text-anchor="middle" x="1455.42" y="-193.5" font-family="Courier New" font-size="14.00">0xbb7b4a454dc3493923482f07822329ed19e8244eff582cc204f8554c3620c3fd</text>
<polyline fill="none" stroke="black" points="1170.17,-185.3 1740.66,-185.3 "/>
<text text-anchor="middle" x="1239.38" y="-168.7" font-family="Courier New" font-size="14.00">offset</text>
<polyline fill="none" stroke="black" points="1170.17,-160.5 1308.58,-160.5 "/>
<text text-anchor="middle" x="1239.38" y="-143.9" font-family="Courier New" font-size="14.00">0</text>
<polyline fill="none" stroke="black" points="1170.17,-135.7 1308.58,-135.7 "/>
<text text-anchor="middle" x="1239.38" y="-119.1" font-family="Courier New" font-size="14.00">1</text>
<polyline fill="none" stroke="black" points="1170.17,-110.9 1308.58,-110.9 "/>
<text text-anchor="middle" x="1239.38" y="-94.3" font-family="Courier New" font-size="14.00">2</text>
<polyline fill="none" stroke="black" points="1308.58,-86.1 1308.58,-185.3 "/>
<text text-anchor="middle" x="1524.41" y="-168.7" font-family="Courier New" font-size="14.00">type: variable (bytes)</text>
<polyline fill="none" stroke="black" points="1308.58,-160.5 1740.23,-160.5 "/>
<text text-anchor="middle" x="1524.4" y="-143.9" font-family="Courier New" font-size="14.00">uint256: lastUpdate (32)</text>
<polyline fill="none" stroke="black" points="1308.58,-135.7 1740.23,-135.7 "/>
<text text-anchor="middle" x="1401.79" y="-119.1" font-family="Courier New" font-size="14.00">unallocated (12)</text>
<polyline fill="none" stroke="black" points="1495,-110.9 1495,-135.7 "/>
<text text-anchor="middle" x="1617.62" y="-119.1" font-family="Courier New" font-size="14.00">address: updatedBy (20)</text>
<polyline fill="none" stroke="black" points="1308.58,-110.9 1740.23,-110.9 "/>
<text text-anchor="middle" x="1524.1" y="-94.3" font-family="Courier New" font-size="14.00">uint256: blockNumber (32)</text>
</g>
<!-- 4&#45;&gt;3 -->
<g id="edge5" class="edge">
<title>4:25&#45;&gt;3</title>
<path fill="none" stroke="black" d="M1134.17,-156.5C1142.56,-156.5 1151.08,-156.5 1159.67,-156.5"/>
<polygon fill="black" stroke="black" points="1159.8,-160 1169.8,-156.5 1159.8,-153 1159.8,-160"/>
</g>
</g>
</svg>
